<?xml version="1.0" encoding="UTF-8"?>
<svg width="197px" height="195px" viewBox="0 0 197 195" version="1.1" xmlns="http://www.w3.org/2000/svg" xmlns:xlink="http://www.w3.org/1999/xlink">
    <!-- Generator: Sketch 62 (91390) - https://sketch.com -->
    <title>CraigBookerInitialsLogo@1x</title>
    <desc>Created with Sketch.</desc>
    <defs>
        <path d="M53.75,70.7 C57.6166667,70.7 61.05,70.3 64.05,69.5 C67.05,68.7 69.6166667,67.8333333 71.75,66.9 C74.2166667,65.7666667 76.35,64.4666667 78.15,63 L78.15,63 L67.65,44.5 C66.65,45.5 65.4833333,46.3666667 64.15,47.1 C63.0166667,47.7666667 61.6166667,48.3666667 59.95,48.9 C58.2833333,49.4333333 56.3833333,49.7 54.25,49.7 C52.1166667,49.7 50.15,49.3333333 48.35,48.6 C46.55,47.8666667 44.9833333,46.8666667 43.65,45.6 C42.3166667,44.3333333 41.2666667,42.85 40.5,41.15 C39.7333333,39.45 39.35,37.6333333 39.35,35.7 C39.35,33.7666667 39.7166667,31.95 40.45,30.25 C41.1833333,28.55 42.2,27.0666667 43.5,25.8 C44.8,24.5333333 46.3166667,23.5333333 48.05,22.8 C49.7833333,22.0666667 51.6833333,21.7 53.75,21.7 C55.75,21.7 57.5333333,21.95 59.1,22.45 C60.6666667,22.95 62.0166667,23.4666667 63.15,24 C64.4166667,24.7333333 65.5833333,25.5 66.65,26.3 L66.65,26.3 L77.15,7.8 C75.35,6.53333333 73.2166667,5.36666667 70.75,4.3 C68.6166667,3.36666667 66.0666667,2.53333333 63.1,1.8 C60.1333333,1.06666667 56.75,0.7 52.95,0.7 C48.15,0.7 43.6166667,1.51666667 39.35,3.15 C35.0833333,4.78333333 31.35,7.13333333 28.15,10.2 C24.95,13.2666667 22.4166667,16.95 20.55,21.25 C18.6833333,25.55 17.75,30.3666667 17.75,35.7 C17.75,40.9 18.65,45.65 20.45,49.95 C22.25,54.25 24.75,57.9333333 27.95,61 C31.15,64.0666667 34.95,66.45 39.35,68.15 C43.75,69.85 48.55,70.7 53.75,70.7 Z M107.85,69 C111.583333,69 114.966667,68.5166667 118,67.55 C121.033333,66.5833333 123.6,65.1833333 125.7,63.35 C127.8,61.5166667 129.416667,59.3 130.55,56.7 C131.683333,54.1 132.25,51.2 132.25,48 C132.25,45.2 131.833333,42.8333333 131,40.9 C130.166667,38.9666667 129.25,37.3666667 128.25,36.1 C127.05,34.6333333 125.716667,33.4333333 124.25,32.5 C125.183333,31.7 126.016667,30.7 126.75,29.5 C127.35,28.5 127.916667,27.25 128.45,25.75 C128.983333,24.25 129.25,22.4333333 129.25,20.3 C129.25,17.3 128.7,14.6833333 127.6,12.45 C126.5,10.2166667 124.966667,8.35 123,6.85 C121.033333,5.35 118.666667,4.21666667 115.9,3.45 C113.133333,2.68333333 110.083333,2.3 106.75,2.3 L106.75,2.3 L80.65,2.3 L80.65,69 L107.85,69 Z M103.65,27.2 L101.25,27.2 L101.25,18 L103.65,18 C106.983333,18 108.65,19.5333333 108.65,22.6 C108.65,25.6666667 106.983333,27.2 103.65,27.2 L103.65,27.2 Z M103.65,53.3 L101.25,53.3 L101.25,41.7 L103.65,41.7 C108.716667,41.7 111.25,43.6333333 111.25,47.5 C111.25,51.3666667 108.716667,53.3 103.65,53.3 L103.65,53.3 Z" id="path-1"></path>
        <filter x="-6.1%" y="-7.1%" width="112.2%" height="120.0%" filterUnits="objectBoundingBox" id="filter-2">
            <feOffset dx="0" dy="2" in="SourceAlpha" result="shadowOffsetOuter1"></feOffset>
            <feGaussianBlur stdDeviation="2" in="shadowOffsetOuter1" result="shadowBlurOuter1"></feGaussianBlur>
            <feColorMatrix values="0 0 0 0 0   0 0 0 0 0   0 0 0 0 0  0 0 0 0.5 0" type="matrix" in="shadowBlurOuter1"></feColorMatrix>
        </filter>
    </defs>
    <g id="CraigBookerInitialsLogo" stroke="none" stroke-width="1" fill="none" fill-rule="evenodd">
        <g id="Group-3" transform="translate(3.000000, 2.000000)" fill="#000000">
            <circle id="Oval" stroke="#000000" cx="95.5" cy="95.5" r="95.5"></circle>
            <circle id="WhiteOval" stroke="#FFFFFF" stroke-width="8" cx="95.5" cy="96.5" r="82.5"></circle>
        </g>
        <g id="Group-2" transform="translate(24.000000, 60.000000)" fill-rule="nonzero">
            <g id="CB">
                <use fill="black" fill-opacity="1" filter="url(#filter-2)" xlink:href="#path-1"></use>
                <use fill="#FFFFFF" xlink:href="#path-1"></use>
            </g>
        </g>
    </g>
</svg>