<?xml version="1.0" encoding="UTF-8"?>
<svg width="233px" height="24px" viewBox="0 0 233 24" version="1.1" xmlns="http://www.w3.org/2000/svg" xmlns:xlink="http://www.w3.org/1999/xlink">
    <!-- Generator: Sketch 64 (93537) - https://sketch.com -->
    <title>Craig Booker Text Logo</title>
    <desc>Created with Sketch.</desc>
    <g id="Craig-Booker-Text-Logo" stroke="none" stroke-width="1" fill="none" fill-rule="evenodd">
        <g id="Group-Copy-3" transform="translate(1.000000, 2.000000)" fill="#000000" fill-rule="nonzero">
            <path d="M12.25875,20.79 C12.67875,20.79 13.111875,20.776875 13.558125,20.750625 C14.004375,20.724375 14.4375,20.689375 14.8575,20.645625 C15.2775,20.601875 15.67125,20.540625 16.03875,20.461875 C16.40625,20.383125 16.72125,20.29125 16.98375,20.18625 C17.21125,20.09875 17.364375,20.006875 17.443125,19.910625 C17.521875,19.814375 17.59625,19.6525 17.66625,19.425 C17.73625,19.1975 17.80625,18.904375 17.87625,18.545625 C17.94625,18.186875 18.0075,17.828125 18.06,17.469375 C18.1125,17.110625 18.15625,16.786875 18.19125,16.498125 C18.22625,16.209375 18.24375,16.02125 18.24375,15.93375 C18.24375,15.82875 18.22625,15.736875 18.19125,15.658125 C18.15625,15.579375 18.095,15.54 18.0075,15.54 C17.9025,15.54 17.828125,15.575 17.784375,15.645 C17.740625,15.715 17.70125,15.855 17.66625,16.065 C17.61375,16.31 17.50875,16.59875 17.35125,16.93125 C17.19375,17.26375 17.00125,17.5525 16.77375,17.7975 C16.24875,18.41 15.61,18.808125 14.8575,18.991875 C14.105,19.175625 13.1425,19.2675 11.97,19.2675 C11.095,19.2675 10.171875,19.075 9.200625,18.69 C8.229375,18.305 7.336875,17.723125 6.523125,16.944375 C5.709375,16.165625 5.035625,15.19 4.501875,14.0175 C3.968125,12.845 3.70125,11.48 3.70125,9.9225 C3.70125,8.645 3.863125,7.415625 4.186875,6.234375 C4.510625,5.053125 5.15375,4.01625 6.11625,3.12375 C6.69375,2.59875 7.371875,2.19625 8.150625,1.91625 C8.929375,1.63625 9.89625,1.49625 11.05125,1.49625 C12.25875,1.49625 13.339375,1.65375 14.293125,1.96875 C15.246875,2.28375 15.9425,2.66875 16.38,3.12375 C16.7125,3.47375 16.961875,3.863125 17.128125,4.291875 C17.294375,4.720625 17.38625,5.13625 17.40375,5.53875 C17.40375,5.92375 17.49125,6.11625 17.66625,6.11625 C17.78875,6.11625 17.8675,6.06375 17.9025,5.95875 C17.9375,5.85375 17.96375,5.705 17.98125,5.5125 C17.99875,5.39 18.0075,5.215 18.0075,4.9875 C18.0075,4.7425 18.011875,4.48875 18.020625,4.22625 C18.029375,3.96375 18.03375,3.6925 18.03375,3.4125 C18.03375,3.1325 18.0425,2.8875 18.06,2.6775 C18.095,2.2225 18.125625,1.894375 18.151875,1.693125 C18.178125,1.491875 18.19125,1.33875 18.19125,1.23375 C18.19125,1.04125 18.06,0.93625 17.7975,0.91875 C17.395,0.88375 16.98375,0.818125 16.56375,0.721875 C16.14375,0.625625 15.68,0.5425 15.1725,0.4725 C14.56,0.385 13.978125,0.319375 13.426875,0.275625 C12.875625,0.231875 12.18875,0.21 11.36625,0.21 C9.40625,0.21 7.77,0.455 6.4575,0.945 C5.145,1.435 4.01625,2.1175 3.07125,2.9925 C2.44125,3.57 1.925,4.186875 1.5225,4.843125 C1.12,5.499375 0.809375,6.146875 0.590625,6.785625 C0.371875,7.424375 0.21875,8.04125 0.13125,8.63625 C0.04375,9.23125 0,9.7475 0,10.185 C0,10.815 0.048125,11.466875 0.144375,12.140625 C0.240625,12.814375 0.41125,13.488125 0.65625,14.161875 C0.90125,14.835625 1.23375,15.491875 1.65375,16.130625 C2.07375,16.769375 2.6075,17.36875 3.255,17.92875 C4.4625,18.97875 5.814375,19.718125 7.310625,20.146875 C8.806875,20.575625 10.45625,20.79 12.25875,20.79 Z M42.778056,20.4225 C43.110556,20.4225 43.276806,20.335 43.276806,20.16 C43.276806,20.02 43.171806,19.95 42.961806,19.95 C42.751806,19.95 42.506806,19.92375 42.226806,19.87125 C42.121806,19.85375 41.981806,19.823125 41.806806,19.779375 C41.631806,19.735625 41.417431,19.6525 41.163681,19.53 C40.909931,19.4075 40.625556,19.2325 40.310556,19.005 C39.995556,18.7775 39.654306,18.47125 39.286806,18.08625 C38.499306,17.26375 37.646181,16.279375 36.727431,15.133125 C35.808681,13.986875 34.763056,12.67 33.590556,11.1825 C34.255556,10.64 34.811181,10.119375 35.257431,9.620625 C35.703681,9.121875 36.058056,8.63625 36.320556,8.16375 C36.583056,7.69125 36.771181,7.21875 36.884931,6.74625 C36.998681,6.27375 37.055556,5.7925 37.055556,5.3025 C37.055556,4.865 36.998681,4.45375 36.884931,4.06875 C36.771181,3.68375 36.622431,3.338125 36.438681,3.031875 C36.254931,2.725625 36.058056,2.45875 35.848056,2.23125 C35.638056,2.00375 35.445556,1.82875 35.270556,1.70625 C34.553056,1.21625 33.778681,0.905625 32.947431,0.774375 C32.116181,0.643125 31.280556,0.5775 30.440556,0.5775 C30.230556,0.5775 29.963681,0.581875 29.639931,0.590625 C29.316181,0.599375 28.974931,0.608125 28.616181,0.616875 C28.257431,0.625625 27.911806,0.634375 27.579306,0.643125 C27.246806,0.651875 26.966806,0.65625 26.739306,0.65625 C26.599306,0.65625 26.398056,0.651875 26.135556,0.643125 C25.873056,0.634375 25.579931,0.625625 25.256181,0.616875 C24.932431,0.608125 24.586806,0.599375 24.219306,0.590625 C23.851806,0.581875 23.493056,0.5775 23.143056,0.5775 C22.758056,0.5775 22.565556,0.65625 22.565556,0.81375 C22.565556,0.97125 22.714306,1.05 23.011806,1.05 C23.204306,1.05 23.396806,1.054375 23.589306,1.063125 C23.781806,1.071875 23.930556,1.09375 24.035556,1.12875 C24.473056,1.21625 24.761806,1.37375 24.901806,1.60125 C25.041806,1.82875 25.129306,2.17 25.164306,2.625 C25.181806,2.835 25.194931,3.058125 25.203681,3.294375 C25.210681,3.483375 25.214881,3.725575 25.216281,4.020975 L25.216806,12.81 C25.216806,14.0175 25.212431,15.11125 25.203681,16.09125 C25.194931,17.07125 25.155556,17.84125 25.085556,18.40125 C25.033056,18.78625 24.958681,19.11 24.862431,19.3725 C24.766181,19.635 24.586806,19.7925 24.324306,19.845 C24.201806,19.88 24.061806,19.90625 23.904306,19.92375 C23.746806,19.94125 23.571806,19.95 23.379306,19.95 C23.099306,19.95 22.959306,20.02 22.959306,20.16 C22.959306,20.335 23.134306,20.4225 23.484306,20.4225 C23.746806,20.4225 24.039931,20.418125 24.363681,20.409375 C24.687431,20.400625 24.998056,20.391875 25.295556,20.383125 C25.593056,20.374375 25.868681,20.365625 26.122431,20.356875 C26.376181,20.348125 26.564306,20.34375 26.686806,20.34375 C26.791806,20.34375 26.979931,20.348125 27.251181,20.356875 C27.522431,20.365625 27.837431,20.374375 28.196181,20.383125 C28.554931,20.391875 28.939931,20.400625 29.351181,20.409375 C29.762431,20.418125 30.160556,20.4225 30.545556,20.4225 C30.895556,20.4225 31.070556,20.335 31.070556,20.16 C31.070556,20.02 30.965556,19.95 30.755556,19.95 C30.598056,19.95 30.392431,19.94125 30.138681,19.92375 C29.884931,19.90625 29.661806,19.88 29.469306,19.845 C29.066806,19.7925 28.804306,19.635 28.681806,19.3725 C28.559306,19.11 28.480556,18.78625 28.445556,18.40125 C28.375556,17.84125 28.336181,17.07125 28.327431,16.09125 C28.319931,15.25125 28.3156453,14.32125 28.3145739,13.30125 L28.314306,12.41625 C28.314306,12.27625 28.384306,12.20625 28.524306,12.20625 L30.808056,12.25875 C31.018056,12.25875 31.175556,12.32 31.280556,12.4425 C31.368056,12.5475 31.503681,12.726875 31.687431,12.980625 C31.871181,13.234375 32.081181,13.5275 32.317431,13.86 C32.553681,14.1925 32.807431,14.55125 33.078681,14.93625 C33.349931,15.32125 33.616806,15.6975 33.879306,16.065 C34.614306,17.08 35.257431,17.9025 35.808681,18.5325 C36.359931,19.1625 36.915556,19.62625 37.475556,19.92375 C37.808056,20.11625 38.175556,20.2475 38.578056,20.3175 C38.980556,20.3875 39.549306,20.4225 40.284306,20.4225 L42.778056,20.4225 Z M30.545556,10.99875 C30.213056,10.99875 29.867431,10.976875 29.508681,10.933125 C29.149931,10.889375 28.830556,10.82375 28.550556,10.73625 C28.393056,10.66625 28.314306,10.50875 28.314306,10.26375 L28.314306,2.28375 C28.314306,2.09125 28.393056,1.96875 28.550556,1.91625 C28.778056,1.84625 29.241806,1.81125 29.941806,1.81125 C30.326806,1.81125 30.751181,1.885625 31.214931,2.034375 C31.678681,2.183125 32.116181,2.44125 32.527431,2.80875 C32.938681,3.17625 33.279931,3.670625 33.551181,4.291875 C33.822431,4.913125 33.958056,5.6875 33.958056,6.615 C33.958056,7.7 33.800556,8.553125 33.485556,9.174375 C33.170556,9.795625 32.811806,10.255 32.409306,10.5525 C32.286806,10.64 32.173056,10.71 32.068056,10.7625 C31.963056,10.815 31.840556,10.85875 31.700556,10.89375 C31.560556,10.92875 31.398681,10.955 31.214931,10.9725 C31.031181,10.99 30.808056,10.99875 30.545556,10.99875 Z M60.802362,20.4225 C61.292362,20.4225 61.616112,20.405 61.773612,20.37 C61.931112,20.335 62.009862,20.265 62.009862,20.16 C62.009862,20.02 61.896112,19.95 61.668612,19.95 C61.511112,19.95 61.336112,19.94125 61.143612,19.92375 C60.951112,19.90625 60.758612,19.88 60.566112,19.845 C60.426112,19.81 60.272987,19.753125 60.106737,19.674375 C59.940487,19.595625 59.761112,19.455625 59.568612,19.254375 C59.376112,19.053125 59.170487,18.773125 58.951737,18.414375 C58.732987,18.055625 58.501112,17.57875 58.256112,16.98375 C57.976112,16.31875 57.634862,15.491875 57.232362,14.503125 C56.829862,13.514375 56.405487,12.46 55.959237,11.34 C55.512987,10.22 55.062362,9.09125 54.607362,7.95375 C54.152362,6.81625 53.732362,5.7575 53.347362,4.7775 C52.962362,3.7975 52.625487,2.9575 52.336737,2.2575 C52.047987,1.5575 51.851112,1.085 51.746112,0.84 C51.501112,0.28 51.282362,0 51.089862,0 C50.949862,0 50.831737,0.07875 50.735487,0.23625 C50.639237,0.39375 50.512362,0.665 50.354862,1.05 L43.766112,17.535 C43.503612,18.2 43.219237,18.738125 42.912987,19.149375 C42.606737,19.560625 42.147362,19.81 41.534862,19.8975 C41.429862,19.915 41.298612,19.928125 41.141112,19.936875 C40.983612,19.945625 40.843612,19.95 40.721112,19.95 C40.511112,19.95 40.406112,20.02 40.406112,20.16 C40.406112,20.335 40.572362,20.4225 40.904862,20.4225 C41.237362,20.4225 41.574237,20.418125 41.915487,20.409375 C42.256737,20.400625 42.571737,20.391875 42.860487,20.383125 C43.149237,20.374375 43.394237,20.365625 43.595487,20.356875 C43.796737,20.348125 43.932362,20.34375 44.002362,20.34375 C44.404862,20.34375 44.864237,20.356875 45.380487,20.383125 C45.896737,20.409375 46.364862,20.4225 46.784862,20.4225 C47.082362,20.4225 47.231112,20.335 47.231112,20.16 C47.231112,20.0725 47.204862,20.015625 47.152362,19.989375 C47.099862,19.963125 46.994862,19.95 46.837362,19.95 L46.443612,19.95 C46.041112,19.95 45.765487,19.875625 45.616737,19.726875 C45.467987,19.578125 45.393612,19.38125 45.393612,19.13625 C45.393612,18.97875 45.424237,18.755625 45.485487,18.466875 C45.546737,18.178125 45.647362,17.8675 45.787362,17.535 L47.204862,13.78125 C47.257362,13.64125 47.336112,13.57125 47.441112,13.57125 L53.294862,13.57125 C53.417362,13.57125 53.504862,13.6325 53.557362,13.755 L55.657362,19.32 C55.727362,19.4775 55.727362,19.60875 55.657362,19.71375 C55.587362,19.81875 55.508612,19.88875 55.421112,19.92375 C55.176112,19.94125 55.053612,20.02 55.053612,20.16 C55.053612,20.2475 55.123612,20.3 55.263612,20.3175 C55.403612,20.335 55.596112,20.3525 55.841112,20.37 C56.891112,20.405 57.862362,20.4225 58.754862,20.4225 L60.802362,20.4225 L60.802362,20.4225 Z M52.796112,12.25875 L47.966112,12.25875 C47.861112,12.25875 47.826112,12.1975 47.861112,12.075 L50.276112,5.6175 C50.293612,5.565 50.315487,5.5125 50.341737,5.46 C50.367987,5.4075 50.398612,5.38125 50.433612,5.38125 C50.468612,5.38125 50.494862,5.4075 50.512362,5.46 C50.529862,5.5125 50.547362,5.565 50.564862,5.6175 L52.927362,12.10125 C52.962362,12.20625 52.918612,12.25875 52.796112,12.25875 Z M71.791668,20.4225 C72.124168,20.4225 72.290418,20.335 72.290418,20.16 C72.290418,20.02 72.150418,19.95 71.870418,19.95 C71.677918,19.95 71.454793,19.94125 71.201043,19.92375 C70.947293,19.90625 70.724168,19.88 70.531668,19.845 C70.129168,19.7925 69.862293,19.6525 69.731043,19.425 C69.599793,19.1975 69.516668,18.90875 69.481668,18.55875 C69.429168,17.99875 69.398543,17.22 69.389793,16.2225 C69.382293,15.3675 69.3780073,14.4096429 69.3769359,13.3489286 L69.376668,4.2525 C69.376668,3.85 69.381043,3.530625 69.389793,3.294375 C69.398543,3.058125 69.411668,2.835 69.429168,2.625 C69.464168,2.17 69.547293,1.824375 69.678543,1.588125 C69.809793,1.351875 70.050418,1.19875 70.400418,1.12875 C70.557918,1.09375 70.693543,1.071875 70.807293,1.063125 C70.921043,1.054375 71.047918,1.05 71.187918,1.05 C71.467918,1.05 71.607918,0.9625 71.607918,0.7875 C71.607918,0.6475 71.424168,0.5775 71.056668,0.5775 C70.811668,0.5775 70.536043,0.581875 70.229793,0.590625 C69.923543,0.599375 69.621668,0.608125 69.324168,0.616875 C69.026668,0.625625 68.746668,0.634375 68.484168,0.643125 C68.221668,0.651875 68.011668,0.65625 67.854168,0.65625 C67.661668,0.65625 67.421043,0.651875 67.132293,0.643125 C66.843543,0.634375 66.541668,0.625625 66.226668,0.616875 C65.911668,0.608125 65.596668,0.599375 65.281668,0.590625 C64.966668,0.581875 64.686668,0.5775 64.441668,0.5775 C64.021668,0.5775 63.811668,0.6475 63.811668,0.7875 C63.811668,0.9625 63.951668,1.05 64.231668,1.05 C64.389168,1.05 64.551043,1.05875 64.717293,1.07625 C64.883543,1.09375 65.036668,1.12 65.176668,1.155 C65.719168,1.2775 66.016668,1.7675 66.069168,2.625 C66.086668,2.835 66.099793,3.058125 66.108543,3.294375 C66.117293,3.530625 66.121668,3.85 66.121668,4.2525 L66.121668,12.81 C66.121668,14.0875 66.117293,15.220625 66.108543,16.209375 C66.099793,17.198125 66.060418,17.9725 65.990418,18.5325 C65.955418,18.9175 65.885418,19.219375 65.780418,19.438125 C65.675418,19.656875 65.491668,19.7925 65.229168,19.845 C65.106668,19.88 64.966668,19.90625 64.809168,19.92375 C64.651668,19.94125 64.476668,19.95 64.284168,19.95 C64.004168,19.95 63.864168,20.02 63.864168,20.16 C63.864168,20.335 64.039168,20.4225 64.389168,20.4225 C64.651668,20.4225 64.944793,20.418125 65.268543,20.409375 C65.592293,20.400625 65.907293,20.391875 66.213543,20.383125 C66.519793,20.374375 66.804168,20.365625 67.066668,20.356875 C67.329168,20.348125 67.539168,20.34375 67.696668,20.34375 C68.046668,20.34375 68.597918,20.356875 69.350418,20.383125 C70.102918,20.409375 70.916668,20.4225 71.791668,20.4225 Z M88.608474,20.79 C89.115974,20.79 89.654099,20.7725 90.222849,20.7375 C90.791599,20.7025 91.351599,20.636875 91.902849,20.540625 C92.454099,20.444375 92.992224,20.321875 93.517224,20.173125 C94.042224,20.024375 94.514724,19.83625 94.934724,19.60875 C95.092224,19.52125 95.188474,19.429375 95.223474,19.333125 C95.258474,19.236875 95.275974,19.01375 95.275974,18.66375 L95.275974,14.0175 L95.275974,14.0175 C95.275974,13.4925 95.284724,13.02875 95.302224,12.62625 C95.319724,12.17125 95.402849,11.825625 95.551599,11.589375 C95.700349,11.353125 95.949724,11.2 96.299724,11.13 C96.457224,11.095 96.588474,11.073125 96.693474,11.064375 C96.798474,11.055625 96.903474,11.05125 97.008474,11.05125 C97.235974,11.05125 97.349724,10.98125 97.349724,10.84125 C97.349724,10.66625 97.174724,10.57875 96.824724,10.57875 C96.614724,10.57875 96.374099,10.583125 96.102849,10.591875 C95.831599,10.600625 95.555974,10.609375 95.275974,10.618125 C94.995974,10.626875 94.724724,10.635625 94.462224,10.644375 C94.199724,10.653125 93.963474,10.6575 93.753474,10.6575 C93.560974,10.6575 93.315974,10.653125 93.018474,10.644375 C92.720974,10.635625 92.401599,10.626875 92.060349,10.618125 C91.719099,10.609375 91.364724,10.600625 90.997224,10.591875 C90.629724,10.583125 90.279724,10.57875 89.947224,10.57875 C89.579724,10.57875 89.395974,10.66625 89.395974,10.84125 C89.395974,10.98125 89.527224,11.05125 89.789724,11.05125 C89.982224,11.05125 90.174724,11.055625 90.367224,11.064375 C90.559724,11.073125 90.708474,11.095 90.813474,11.13 C91.250974,11.2175 91.544099,11.375 91.692849,11.6025 C91.841599,11.83 91.924724,12.17125 91.942224,12.62625 C91.959724,13.02875 91.968474,13.48375 91.968474,13.99125 L91.968474,18.19125 C91.968474,18.41875 91.933474,18.615625 91.863474,18.781875 C91.793474,18.948125 91.662224,19.075 91.469724,19.1625 C91.154724,19.3025 90.791599,19.385625 90.380349,19.411875 C89.969099,19.438125 89.588474,19.45125 89.238474,19.45125 C87.855974,19.45125 86.600349,19.201875 85.471599,18.703125 C84.342849,18.204375 83.380349,17.513125 82.584099,16.629375 C81.787849,15.745625 81.175349,14.704375 80.746599,13.505625 C80.317849,12.306875 80.103474,10.99875 80.103474,9.58125 C80.103474,7.95375 80.322224,6.628125 80.759724,5.604375 C81.197224,4.580625 81.783474,3.7625 82.518474,3.15 C82.973474,2.765 83.432849,2.463125 83.896599,2.244375 C84.360349,2.025625 84.815349,1.86375 85.261599,1.75875 C85.707849,1.65375 86.136599,1.588125 86.547849,1.561875 C86.959099,1.535625 87.348474,1.5225 87.715974,1.5225 C88.450974,1.5225 89.133474,1.588125 89.763474,1.719375 C90.393474,1.850625 90.957849,2.02125 91.456599,2.23125 C91.955349,2.44125 92.384099,2.664375 92.742849,2.900625 C93.101599,3.136875 93.377224,3.36 93.569724,3.57 C93.919724,3.9375 94.147224,4.318125 94.252224,4.711875 C94.357224,5.105625 94.427224,5.45125 94.462224,5.74875 C94.497224,5.97625 94.584724,6.09 94.724724,6.09 C94.829724,6.09 94.904099,6.050625 94.947849,5.971875 C94.991599,5.893125 95.013474,5.74875 95.013474,5.53875 C95.013474,4.71625 95.022224,4.0425 95.039724,3.5175 C95.057224,2.9925 95.079099,2.5725 95.105349,2.2575 C95.131599,1.9425 95.153474,1.710625 95.170974,1.561875 C95.188474,1.413125 95.197224,1.30375 95.197224,1.23375 C95.197224,1.14625 95.175349,1.07625 95.131599,1.02375 C95.087849,0.97125 94.987224,0.93625 94.829724,0.91875 C94.532224,0.90125 94.182224,0.861875 93.779724,0.800625 C93.377224,0.739375 93.035974,0.6825 92.755974,0.63 C92.615974,0.6125 92.384099,0.5775 92.060349,0.525 C91.736599,0.4725 91.355974,0.424375 90.918474,0.380625 C90.480974,0.336875 90.017224,0.2975 89.527224,0.2625 C89.037224,0.2275 88.564724,0.21 88.109724,0.21 C87.549724,0.21 86.989724,0.2275 86.429724,0.2625 C85.869724,0.2975 85.292224,0.37625 84.697224,0.49875 C84.102224,0.62125 83.502849,0.791875 82.899099,1.010625 C82.295349,1.229375 81.678474,1.53125 81.048474,1.91625 C80.453474,2.28375 79.880349,2.73875 79.329099,3.28125 C78.777849,3.82375 78.292224,4.45375 77.872224,5.17125 C77.452224,5.88875 77.115349,6.69375 76.861599,7.58625 C76.607849,8.47875 76.480974,9.45 76.480974,10.5 C76.480974,12.32 76.809099,13.8775 77.465349,15.1725 C78.121599,16.4675 79.009724,17.530625 80.129724,18.361875 C81.249724,19.193125 82.540349,19.805625 84.001599,20.199375 C85.462849,20.593125 86.998474,20.79 88.608474,20.79 Z" id="CRAIG"></path>
            <path d="M108.0325,20.29125 C109.24,20.29125 110.285625,20.125 111.169375,19.7925 C112.053125,19.46 112.779375,19.0225 113.348125,18.48 C113.916875,17.9375 114.34125,17.325 114.62125,16.6425 C114.90125,15.96 115.04125,15.26875 115.04125,14.56875 C115.04125,13.79875 114.8925,13.1075 114.595,12.495 C114.2975,11.8825 113.916875,11.34 113.453125,10.8675 C112.989375,10.395 112.4775,9.996875 111.9175,9.673125 C111.3575,9.349375 110.80625,9.09125 110.26375,8.89875 C110.63125,8.61875 110.976875,8.32125 111.300625,8.00625 C111.624375,7.69125 111.90875,7.35 112.15375,6.9825 C112.39875,6.615 112.59125,6.2125 112.73125,5.775 C112.87125,5.3375 112.94125,4.8475 112.94125,4.305 C112.94125,3.955 112.87125,3.5525 112.73125,3.0975 C112.59125,2.6425 112.32,2.21375 111.9175,1.81125 C111.515,1.40875 110.950625,1.0675 110.224375,0.7875 C109.498125,0.5075 108.54,0.3675 107.35,0.3675 C106.895,0.3675 106.409375,0.380625 105.893125,0.406875 C105.376875,0.433125 104.795,0.44625 104.1475,0.44625 C104.0075,0.44625 103.810625,0.441875 103.556875,0.433125 C103.303125,0.424375 103.014375,0.415625 102.690625,0.406875 C102.366875,0.398125 102.02125,0.389375 101.65375,0.380625 C101.28625,0.371875 100.9275,0.3675 100.5775,0.3675 C100.1925,0.3675 100,0.44625 100,0.60375 C100,0.76125 100.14875,0.84 100.44625,0.84 C100.63875,0.84 100.83125,0.844375 101.02375,0.853125 C101.21625,0.861875 101.365,0.88375 101.47,0.91875 C101.9075,1.00625 102.19625,1.16375 102.33625,1.39125 C102.47625,1.61875 102.56375,1.96 102.59875,2.415 C102.61625,2.625 102.629375,2.848125 102.638125,3.084375 C102.646875,3.320625 102.65125,3.64 102.65125,4.0425 L102.65125,12.6 C102.65125,13.8075 102.646875,14.90125 102.638125,15.88125 C102.629375,16.86125 102.59,17.63125 102.52,18.19125 C102.4675,18.57625 102.393125,18.9 102.296875,19.1625 C102.200625,19.425 102.02125,19.5825 101.75875,19.635 C101.63625,19.67 101.49625,19.69625 101.33875,19.71375 C101.18125,19.73125 101.00625,19.74 100.81375,19.74 C100.53375,19.74 100.39375,19.81 100.39375,19.95 C100.39375,20.125 100.56875,20.2125 100.91875,20.2125 C101.18125,20.2125 101.474375,20.20375 101.798125,20.18625 C102.121875,20.16875 102.4325,20.16 102.73,20.16 C103.045,20.1425 103.33375,20.13375 103.59625,20.13375 L104.22625,20.13375 L104.22625,20.13375 C104.41875,20.13375 104.694375,20.138125 105.053125,20.146875 C105.411875,20.155625 105.7925,20.1775 106.195,20.2125 C106.58,20.23 106.943125,20.2475 107.284375,20.265 C107.625625,20.2825 107.875,20.29125 108.0325,20.29125 Z M107.21875,8.79375 C106.62375,8.79375 106.2125,8.7675 105.985,8.715 C105.9325,8.6975 105.88875,8.67125 105.85375,8.63625 C105.81875,8.60125 105.80125,8.53125 105.80125,8.42625 L105.80125,1.9425 C105.80125,1.6975 105.88,1.54875 106.0375,1.49625 C106.1775,1.46125 106.30875,1.44375 106.43125,1.44375 L106.90375,1.44375 L106.90375,1.44375 C107.46375,1.44375 107.949375,1.575 108.360625,1.8375 C108.771875,2.1 109.113125,2.428125 109.384375,2.821875 C109.655625,3.215625 109.856875,3.653125 109.988125,4.134375 C110.119375,4.615625 110.185,5.075 110.185,5.5125 C110.185,6.79 109.82625,7.7175 109.10875,8.295 C108.88125,8.4875 108.61875,8.61875 108.32125,8.68875 C108.02375,8.75875 107.65625,8.79375 107.21875,8.79375 Z M108.63625,19.11 C108.33875,19.11 108.0325,19.0925 107.7175,19.0575 C107.4025,19.0225 107.07,18.935 106.72,18.795 C106.51,18.7075 106.34375,18.606875 106.22125,18.493125 C106.09875,18.379375 106.006875,18.230625 105.945625,18.046875 C105.884375,17.863125 105.845,17.63125 105.8275,17.35125 C105.81,17.07125 105.80125,16.7125 105.80125,16.275 L105.80125,10.05375 C105.80125,9.93125 105.85375,9.87 105.95875,9.87 L106.48375,9.87 L106.48375,9.87 C106.64125,9.87 106.8425,9.87875 107.0875,9.89625 C107.595,9.93125 108.015,9.996875 108.3475,10.093125 C108.68,10.189375 108.98625,10.33375 109.26625,10.52625 C109.75625,10.87625 110.1675,11.27 110.5,11.7075 C110.8325,12.145 111.095,12.595625 111.2875,13.059375 C111.48,13.523125 111.615625,13.986875 111.694375,14.450625 C111.773125,14.914375 111.8125,15.3475 111.8125,15.75 C111.8125,16.4325 111.703125,16.9925 111.484375,17.43 C111.265625,17.8675 110.994375,18.20875 110.670625,18.45375 C110.346875,18.69875 110.00125,18.869375 109.63375,18.965625 C109.26625,19.061875 108.93375,19.11 108.63625,19.11 Z M129.7625,20.58 C131.425,20.58 132.925625,20.3 134.264375,19.74 C135.603125,19.18 136.745,18.414375 137.69,17.443125 C138.635,16.471875 139.36125,15.334375 139.86875,14.030625 C140.37625,12.726875 140.63,11.3225 140.63,9.8175 C140.63,8.3125 140.385,6.95625 139.895,5.74875 C139.405,4.54125 138.700625,3.50875 137.781875,2.65125 C136.863125,1.79375 135.7475,1.1375 134.435,0.6825 C133.1225,0.2275 131.6525,0 130.025,0 C128.0475,0 126.371875,0.32375 124.998125,0.97125 C123.624375,1.61875 122.50875,2.445625 121.65125,3.451875 C120.79375,4.458125 120.168125,5.569375 119.774375,6.785625 C119.380625,8.001875 119.18375,9.17 119.18375,10.29 C119.18375,11.445 119.380625,12.630625 119.774375,13.846875 C120.168125,15.063125 120.79375,16.17 121.65125,17.1675 C122.50875,18.165 123.6025,18.983125 124.9325,19.621875 C126.2625,20.260625 127.8725,20.58 129.7625,20.58 Z M130.865,19.2675 C129.605,19.2675 128.47625,19.01375 127.47875,18.50625 C126.48125,17.99875 125.636875,17.303125 124.945625,16.419375 C124.254375,15.535625 123.725,14.49875 123.3575,13.30875 C122.99,12.11875 122.80625,10.84125 122.80625,9.47625 C122.80625,7.84875 123.003125,6.50125 123.396875,5.43375 C123.790625,4.36625 124.29375,3.52625 124.90625,2.91375 C125.51875,2.30125 126.21,1.8725 126.98,1.6275 C127.75,1.3825 128.51125,1.26 129.26375,1.26 C130.33125,1.26 131.333125,1.47875 132.269375,1.91625 C133.205625,2.35375 134.02375,2.988125 134.72375,3.819375 C135.42375,4.650625 135.970625,5.6525 136.364375,6.825 C136.758125,7.9975 136.955,9.31875 136.955,10.78875 C136.955,12.04875 136.845625,13.13375 136.626875,14.04375 C136.408125,14.95375 136.12375,15.72375 135.77375,16.35375 C135.42375,16.98375 135.03,17.49125 134.5925,17.87625 C134.155,18.26125 133.70875,18.554375 133.25375,18.755625 C132.79875,18.956875 132.36125,19.0925 131.94125,19.1625 C131.52125,19.2325 131.1625,19.2675 130.865,19.2675 Z M155.45625,20.58 C157.11875,20.58 158.619375,20.3 159.958125,19.74 C161.296875,19.18 162.43875,18.414375 163.38375,17.443125 C164.32875,16.471875 165.055,15.334375 165.5625,14.030625 C166.07,12.726875 166.32375,11.3225 166.32375,9.8175 C166.32375,8.3125 166.07875,6.95625 165.58875,5.74875 C165.09875,4.54125 164.394375,3.50875 163.475625,2.65125 C162.556875,1.79375 161.44125,1.1375 160.12875,0.6825 C158.81625,0.2275 157.34625,0 155.71875,0 C153.74125,0 152.065625,0.32375 150.691875,0.97125 C149.318125,1.61875 148.2025,2.445625 147.345,3.451875 C146.4875,4.458125 145.861875,5.569375 145.468125,6.785625 C145.074375,8.001875 144.8775,9.17 144.8775,10.29 C144.8775,11.445 145.074375,12.630625 145.468125,13.846875 C145.861875,15.063125 146.4875,16.17 147.345,17.1675 C148.2025,18.165 149.29625,18.983125 150.62625,19.621875 C151.95625,20.260625 153.56625,20.58 155.45625,20.58 Z M156.55875,19.2675 C155.29875,19.2675 154.17,19.01375 153.1725,18.50625 C152.175,17.99875 151.330625,17.303125 150.639375,16.419375 C149.948125,15.535625 149.41875,14.49875 149.05125,13.30875 C148.68375,12.11875 148.5,10.84125 148.5,9.47625 C148.5,7.84875 148.696875,6.50125 149.090625,5.43375 C149.484375,4.36625 149.9875,3.52625 150.6,2.91375 C151.2125,2.30125 151.90375,1.8725 152.67375,1.6275 C153.44375,1.3825 154.205,1.26 154.9575,1.26 C156.025,1.26 157.026875,1.47875 157.963125,1.91625 C158.899375,2.35375 159.7175,2.988125 160.4175,3.819375 C161.1175,4.650625 161.664375,5.6525 162.058125,6.825 C162.451875,7.9975 162.64875,9.31875 162.64875,10.78875 C162.64875,12.04875 162.539375,13.13375 162.320625,14.04375 C162.101875,14.95375 161.8175,15.72375 161.4675,16.35375 C161.1175,16.98375 160.72375,17.49125 160.28625,17.87625 C159.84875,18.26125 159.4025,18.554375 158.9475,18.755625 C158.4925,18.956875 158.055,19.0925 157.635,19.1625 C157.215,19.2325 156.85625,19.2675 156.55875,19.2675 Z M191.2825,20.2125 C191.5275,20.2125 191.69375,20.190625 191.78125,20.146875 C191.86875,20.103125 191.9125,20.0375 191.9125,19.95 C191.9125,19.81 191.79875,19.74 191.57125,19.74 C191.41375,19.74 191.20375,19.71375 190.94125,19.66125 C190.67875,19.60875 190.34625,19.50375 189.94375,19.34625 C189.22625,19.06625 188.565625,18.66375 187.961875,18.13875 C187.358125,17.61375 186.7675,17.07125 186.19,16.51125 C186.015,16.35375 185.74375,16.078125 185.37625,15.684375 C185.00875,15.290625 184.584375,14.844375 184.103125,14.345625 C183.621875,13.846875 183.11875,13.313125 182.59375,12.744375 C182.06875,12.175625 181.574375,11.62875 181.110625,11.10375 C180.646875,10.57875 180.23125,10.110625 179.86375,9.699375 C179.49625,9.288125 179.23375,8.9775 179.07625,8.7675 C179.21625,8.61 179.439375,8.378125 179.745625,8.071875 L180.23125,7.58625 C180.401875,7.415625 180.58125,7.23625 180.769375,7.048125 L182.743958,5.07354167 C182.871319,4.94618056 182.99625,4.82125 183.11875,4.69875 C183.48625,4.33125 183.814375,4.0075 184.103125,3.7275 C184.391875,3.4475 184.60625,3.2375 184.74625,3.0975 C185.30625,2.5375 185.818125,2.10875 186.281875,1.81125 C186.745625,1.51375 187.17875,1.28625 187.58125,1.12875 C187.82625,1.04125 188.093125,0.97125 188.381875,0.91875 C188.670625,0.86625 188.91125,0.84 189.10375,0.84 C189.36625,0.84 189.4975,0.76125 189.4975,0.60375 C189.4975,0.44625 189.34875,0.3675 189.05125,0.3675 C188.84125,0.3675 188.605,0.371875 188.3425,0.380625 C188.08,0.389375 187.804375,0.398125 187.515625,0.406875 C187.226875,0.415625 186.95125,0.424375 186.68875,0.433125 C186.42625,0.441875 186.19,0.44625 185.98,0.44625 C185.805,0.44625 185.590625,0.441875 185.336875,0.433125 C185.083125,0.424375 184.825,0.415625 184.5625,0.406875 C184.3,0.398125 184.055,0.389375 183.8275,0.380625 C183.6,0.371875 183.41625,0.3675 183.27625,0.3675 C182.99625,0.3675 182.85625,0.44625 182.85625,0.60375 C182.85625,0.72625 182.97,0.81375 183.1975,0.86625 C183.4425,0.91875 183.565,1.09375 183.565,1.39125 C183.565,1.61875 183.438125,1.894375 183.184375,2.218125 C182.930625,2.541875 182.62,2.9225 182.2525,3.36 C182.13,3.5175 181.92875,3.745 181.64875,4.0425 C181.36875,4.34 181.049375,4.6725 180.690625,5.04 C180.331875,5.4075 179.955625,5.796875 179.561875,6.208125 C179.168125,6.619375 178.7875,7.0175 178.42,7.4025 C178.0525,7.7875 177.72,8.133125 177.4225,8.439375 C177.125,8.745625 176.90625,8.9775 176.76625,9.135 L176.635,9.135 L176.635,4.0425 C176.635,3.64 176.639375,3.320625 176.648125,3.084375 C176.656875,2.848125 176.67,2.625 176.6875,2.415 C176.7225,1.96 176.805625,1.614375 176.936875,1.378125 C177.068125,1.141875 177.30875,0.98875 177.65875,0.91875 C177.81625,0.88375 177.943125,0.861875 178.039375,0.853125 C178.135625,0.844375 178.25375,0.84 178.39375,0.84 C178.63875,0.84 178.76125,0.76125 178.76125,0.60375 C178.76125,0.44625 178.5775,0.3675 178.21,0.3675 C177.9825,0.3675 177.72,0.371875 177.4225,0.380625 C177.125,0.389375 176.823125,0.398125 176.516875,0.406875 C176.210625,0.415625 175.92625,0.424375 175.66375,0.433125 C175.40125,0.441875 175.19125,0.44625 175.03375,0.44625 C174.87625,0.44625 174.661875,0.441875 174.390625,0.433125 C174.119375,0.424375 173.8175,0.415625 173.485,0.406875 C173.1525,0.398125 172.8025,0.389375 172.435,0.380625 C172.0675,0.371875 171.70875,0.3675 171.35875,0.3675 C170.97375,0.3675 170.78125,0.44625 170.78125,0.60375 C170.78125,0.76125 170.93,0.84 171.2275,0.84 C171.42,0.84 171.6125,0.844375 171.805,0.853125 C171.9975,0.861875 172.14625,0.88375 172.25125,0.91875 C172.68875,1.00625 172.9775,1.16375 173.1175,1.39125 C173.2575,1.61875 173.345,1.96 173.38,2.415 C173.3975,2.625 173.410625,2.848125 173.419375,3.084375 C173.426375,3.273375 173.430575,3.515575 173.431975,3.810975 L173.4325,12.6 C173.4325,13.8075 173.428125,14.90125 173.419375,15.88125 C173.410625,16.86125 173.37125,17.63125 173.30125,18.19125 C173.24875,18.57625 173.174375,18.9 173.078125,19.1625 C172.981875,19.425 172.8025,19.5825 172.54,19.635 C172.4175,19.67 172.2775,19.69625 172.12,19.71375 C171.9625,19.73125 171.7875,19.74 171.595,19.74 C171.315,19.74 171.175,19.81 171.175,19.95 C171.175,20.125 171.35,20.2125 171.7,20.2125 C171.9625,20.2125 172.255625,20.208125 172.579375,20.199375 C172.903125,20.190625 173.218125,20.181875 173.524375,20.173125 C173.830625,20.164375 174.115,20.155625 174.3775,20.146875 C174.64,20.138125 174.85,20.13375 175.0075,20.13375 C175.165,20.13375 175.38375,20.138125 175.66375,20.146875 C175.94375,20.155625 176.254375,20.164375 176.595625,20.173125 C176.936875,20.181875 177.295625,20.190625 177.671875,20.199375 C178.048125,20.208125 178.42,20.2125 178.7875,20.2125 C179.12,20.2125 179.28625,20.125 179.28625,19.95 C179.28625,19.81 179.1725,19.74 178.945,19.74 C178.77,19.74 178.56,19.73125 178.315,19.71375 C178.07,19.69625 177.85125,19.67 177.65875,19.635 C177.32625,19.5825 177.094375,19.425 176.963125,19.1625 C176.831875,18.9 176.74875,18.585 176.71375,18.2175 C176.67875,17.6575 176.656875,16.883125 176.648125,15.894375 C176.640833,15.0704167 176.63658,14.1705035 176.635365,13.1946354 L176.635,10.21125 L176.76625,10.21125 L177.055,10.605 C177.1425,10.7275 177.348125,10.985625 177.671875,11.379375 C177.995625,11.773125 178.380625,12.2325 178.826875,12.7575 C179.273125,13.2825 179.754375,13.8425 180.270625,14.4375 C180.786875,15.0325 181.285625,15.596875 181.766875,16.130625 C182.248125,16.664375 182.68125,17.14125 183.06625,17.56125 C183.45125,17.98125 183.74,18.27875 183.9325,18.45375 C184.2125,18.69875 184.475,18.921875 184.72,19.123125 C184.965,19.324375 185.21,19.495 185.455,19.635 C185.7,19.775 185.9625,19.88875 186.2425,19.97625 C186.5225,20.06375 186.8375,20.125 187.1875,20.16 C187.4675,20.195 187.73875,20.2125 188.00125,20.2125 L191.2825,20.2125 Z M203.79875,20.29125 C204.04375,20.29125 204.249375,20.286875 204.415625,20.278125 C204.581875,20.269375 204.7175,20.243125 204.8225,20.199375 C204.9275,20.155625 205.00625,20.09 205.05875,20.0025 C205.11125,19.915 205.16375,19.78375 205.21625,19.60875 C205.25125,19.48625 205.28625,19.289375 205.32125,19.018125 C205.35625,18.746875 205.39125,18.466875 205.42625,18.178125 C205.46125,17.889375 205.491875,17.609375 205.518125,17.338125 C205.544375,17.066875 205.5575,16.8525 205.5575,16.695 C205.5575,16.555 205.54875,16.44125 205.53125,16.35375 C205.51375,16.26625 205.4525,16.2225 205.3475,16.2225 C205.2075,16.2225 205.11125,16.35375 205.05875,16.61625 C204.97125,17.15875 204.84,17.57875 204.665,17.87625 C204.49,18.17375 204.2275,18.40125 203.8775,18.55875 C203.5275,18.71625 203.11625,18.808125 202.64375,18.834375 C202.17125,18.860625 201.76,18.87375 201.41,18.87375 C200.745,18.87375 200.206875,18.843125 199.795625,18.781875 C199.384375,18.720625 199.069375,18.61125 198.850625,18.45375 C198.631875,18.29625 198.483125,18.073125 198.404375,17.784375 C198.325625,17.495625 198.2775,17.12375 198.26,16.66875 L198.26,10.52625 C198.26,10.35125 198.3125,10.26375 198.4175,10.26375 L199.17875,10.26375 L199.17875,10.26375 C199.54625,10.26375 199.926875,10.268125 200.320625,10.276875 C200.714375,10.285625 201.08625,10.294375 201.43625,10.303125 C201.78625,10.311875 202.0225,10.325 202.145,10.3425 C202.635,10.395 202.985,10.513125 203.195,10.696875 C203.405,10.880625 203.545,11.10375 203.615,11.36625 C203.65,11.54125 203.671875,11.7075 203.680625,11.865 C203.689375,12.0225 203.7025,12.17125 203.72,12.31125 C203.72,12.46875 203.79875,12.5475 203.95625,12.5475 C204.07875,12.5475 204.14875,12.490625 204.16625,12.376875 C204.18375,12.263125 204.1925,12.15375 204.1925,12.04875 C204.1925,11.99625 204.196875,11.9 204.205625,11.76 C204.214375,11.62 204.223125,11.4625 204.231875,11.2875 C204.240625,11.1125 204.25375,10.9375 204.27125,10.7625 C204.28875,10.5875 204.2975,10.43 204.2975,10.29 C204.35,9.625 204.398125,9.16125 204.441875,8.89875 C204.485625,8.63625 204.5075,8.46125 204.5075,8.37375 C204.5075,8.23375 204.44625,8.16375 204.32375,8.16375 C204.23625,8.16375 204.09625,8.2775 203.90375,8.505 C203.78125,8.645 203.619375,8.736875 203.418125,8.780625 C203.216875,8.824375 202.95875,8.86375 202.64375,8.89875 C202.48625,8.91625 202.20625,8.929375 201.80375,8.938125 C201.40125,8.946875 200.9725,8.95125 200.5175,8.95125 L198.44375,8.95125 L198.44375,8.95125 C198.32125,8.95125 198.26,8.855 198.26,8.6625 L198.26,2.02125 C198.26,1.84625 198.32125,1.75875 198.44375,1.75875 C198.56625,1.75875 198.81125,1.763125 199.17875,1.771875 C199.42375,1.77770833 199.676528,1.78354167 199.937083,1.789375 L200.33375,1.798125 C200.73625,1.806875 201.116875,1.815625 201.475625,1.824375 C201.834375,1.833125 202.06625,1.84625 202.17125,1.86375 C202.81875,1.95125 203.251875,2.07375 203.470625,2.23125 C203.689375,2.38875 203.8425,2.58125 203.93,2.80875 C204,2.96625 204.04375,3.14125 204.06125,3.33375 C204.07875,3.52625 204.0875,3.66625 204.0875,3.75375 C204.0875,3.99875 204.16625,4.12125 204.32375,4.12125 C204.41125,4.12125 204.4725,4.090625 204.5075,4.029375 C204.5425,3.968125 204.56875,3.9025 204.58625,3.8325 C204.60375,3.7625 204.616875,3.644375 204.625625,3.478125 C204.634375,3.311875 204.6475,3.136875 204.665,2.953125 C204.6825,2.769375 204.695625,2.59875 204.704375,2.44125 C204.713125,2.28375 204.7175,2.17 204.7175,2.1 C204.7525,1.4875 204.79625,1.071875 204.84875,0.853125 C204.90125,0.634375 204.9275,0.48125 204.9275,0.39375 C204.9275,0.23625 204.875,0.1575 204.77,0.1575 C204.7,0.1575 204.63,0.170625 204.56,0.196875 C204.49,0.223125 204.42,0.245 204.35,0.2625 C204.245,0.2975 204.091875,0.32375 203.890625,0.34125 C203.689375,0.35875 203.46625,0.385 203.22125,0.42 C203.13375,0.42 202.9325,0.424375 202.6175,0.433125 C202.3025,0.441875 201.92625,0.44625 201.48875,0.44625 L196.65875,0.44625 L196.65875,0.44625 C196.46625,0.44625 196.23,0.441875 195.95,0.433125 C195.67,0.424375 195.355,0.41125 195.005,0.39375 C194.6725,0.39375 194.3225,0.389375 193.955,0.380625 C193.5875,0.371875 193.22875,0.3675 192.87875,0.3675 C192.49375,0.3675 192.30125,0.44625 192.30125,0.60375 C192.30125,0.76125 192.45,0.84 192.7475,0.84 C192.94,0.84 193.1325,0.844375 193.325,0.853125 C193.5175,0.861875 193.66625,0.88375 193.77125,0.91875 C194.20875,1.00625 194.4975,1.16375 194.6375,1.39125 C194.7775,1.61875 194.865,1.96 194.9,2.415 C194.9175,2.625 194.930625,2.848125 194.939375,3.084375 C194.946375,3.273375 194.950575,3.515575 194.951975,3.810975 L194.9525,12.6 C194.9525,13.8075 194.948125,14.90125 194.939375,15.88125 C194.930625,16.86125 194.89125,17.63125 194.82125,18.19125 C194.76875,18.57625 194.694375,18.9 194.598125,19.1625 C194.501875,19.425 194.3225,19.5825 194.06,19.635 C193.9375,19.67 193.7975,19.69625 193.64,19.71375 C193.4825,19.73125 193.3075,19.74 193.115,19.74 C192.835,19.74 192.695,19.81 192.695,19.95 C192.695,20.125 192.87,20.2125 193.22,20.2125 C193.4825,20.2125 193.775625,20.20375 194.099375,20.18625 C194.423125,20.16875 194.73375,20.16 195.03125,20.16 C195.34625,20.1425 195.635,20.13375 195.8975,20.13375 L196.5275,20.13375 L196.5275,20.13375 C196.93,20.13375 197.345625,20.138125 197.774375,20.146875 C198.203125,20.155625 198.6975,20.1775 199.2575,20.2125 C199.8175,20.23 200.465,20.2475 201.2,20.265 C201.935,20.2825 202.80125,20.29125 203.79875,20.29125 Z M230.46375,20.2125 C230.79625,20.2125 230.9625,20.125 230.9625,19.95 C230.9625,19.81 230.8575,19.74 230.6475,19.74 C230.4375,19.74 230.1925,19.71375 229.9125,19.66125 C229.8075,19.64375 229.6675,19.613125 229.4925,19.569375 C229.3175,19.525625 229.103125,19.4425 228.849375,19.32 C228.595625,19.1975 228.31125,19.0225 227.99625,18.795 C227.68125,18.5675 227.34,18.26125 226.9725,17.87625 C226.185,17.05375 225.331875,16.069375 224.413125,14.923125 C223.494375,13.776875 222.44875,12.46 221.27625,10.9725 C221.94125,10.43 222.496875,9.909375 222.943125,9.410625 C223.389375,8.911875 223.74375,8.42625 224.00625,7.95375 C224.26875,7.48125 224.456875,7.00875 224.570625,6.53625 C224.684375,6.06375 224.74125,5.5825 224.74125,5.0925 C224.74125,4.655 224.684375,4.24375 224.570625,3.85875 C224.456875,3.47375 224.308125,3.128125 224.124375,2.821875 C223.940625,2.515625 223.74375,2.24875 223.53375,2.02125 C223.32375,1.79375 223.13125,1.61875 222.95625,1.49625 C222.23875,1.00625 221.464375,0.695625 220.633125,0.564375 C219.801875,0.433125 218.96625,0.3675 218.12625,0.3675 C217.91625,0.3675 217.649375,0.371875 217.325625,0.380625 C217.001875,0.389375 216.660625,0.398125 216.301875,0.406875 C215.943125,0.415625 215.5975,0.424375 215.265,0.433125 C214.9325,0.441875 214.6525,0.44625 214.425,0.44625 C214.285,0.44625 214.08375,0.441875 213.82125,0.433125 C213.55875,0.424375 213.265625,0.415625 212.941875,0.406875 C212.618125,0.398125 212.2725,0.389375 211.905,0.380625 C211.5375,0.371875 211.17875,0.3675 210.82875,0.3675 C210.44375,0.3675 210.25125,0.44625 210.25125,0.60375 C210.25125,0.76125 210.4,0.84 210.6975,0.84 C210.89,0.84 211.0825,0.844375 211.275,0.853125 C211.4675,0.861875 211.61625,0.88375 211.72125,0.91875 C212.15875,1.00625 212.4475,1.16375 212.5875,1.39125 C212.7275,1.61875 212.815,1.96 212.85,2.415 C212.8675,2.625 212.880625,2.848125 212.889375,3.084375 C212.896375,3.273375 212.900575,3.515575 212.901975,3.810975 L212.9025,12.6 C212.9025,13.8075 212.898125,14.90125 212.889375,15.88125 C212.880625,16.86125 212.84125,17.63125 212.77125,18.19125 C212.71875,18.57625 212.644375,18.9 212.548125,19.1625 C212.451875,19.425 212.2725,19.5825 212.01,19.635 C211.8875,19.67 211.7475,19.69625 211.59,19.71375 C211.4325,19.73125 211.2575,19.74 211.065,19.74 C210.785,19.74 210.645,19.81 210.645,19.95 C210.645,20.125 210.82,20.2125 211.17,20.2125 C211.4325,20.2125 211.725625,20.208125 212.049375,20.199375 C212.373125,20.190625 212.68375,20.181875 212.98125,20.173125 C213.27875,20.164375 213.554375,20.155625 213.808125,20.146875 C214.061875,20.138125 214.25,20.13375 214.3725,20.13375 C214.4775,20.13375 214.665625,20.138125 214.936875,20.146875 C215.208125,20.155625 215.523125,20.164375 215.881875,20.173125 C216.240625,20.181875 216.625625,20.190625 217.036875,20.199375 C217.448125,20.208125 217.84625,20.2125 218.23125,20.2125 C218.58125,20.2125 218.75625,20.125 218.75625,19.95 C218.75625,19.81 218.65125,19.74 218.44125,19.74 C218.28375,19.74 218.078125,19.73125 217.824375,19.71375 C217.570625,19.69625 217.3475,19.67 217.155,19.635 C216.7525,19.5825 216.49,19.425 216.3675,19.1625 C216.245,18.9 216.16625,18.57625 216.13125,18.19125 C216.06125,17.63125 216.021875,16.86125 216.013125,15.88125 C216.005625,15.04125 216.001339,14.11125 216.000268,13.09125 L216,12.20625 C216,12.06625 216.07,11.99625 216.21,11.99625 L218.49375,12.04875 C218.70375,12.04875 218.86125,12.11 218.96625,12.2325 C219.05375,12.3375 219.189375,12.516875 219.373125,12.770625 C219.556875,13.024375 219.766875,13.3175 220.003125,13.65 C220.239375,13.9825 220.493125,14.34125 220.764375,14.72625 C221.035625,15.11125 221.3025,15.4875 221.565,15.855 C222.3,16.87 222.943125,17.6925 223.494375,18.3225 C224.045625,18.9525 224.60125,19.41625 225.16125,19.71375 C225.49375,19.90625 225.86125,20.0375 226.26375,20.1075 C226.66625,20.1775 227.235,20.2125 227.97,20.2125 L230.46375,20.2125 Z M218.23125,10.78875 C217.89875,10.78875 217.553125,10.766875 217.194375,10.723125 C216.835625,10.679375 216.51625,10.61375 216.23625,10.52625 C216.07875,10.45625 216,10.29875 216,10.05375 L216,2.07375 C216,1.88125 216.07875,1.75875 216.23625,1.70625 C216.46375,1.63625 216.9275,1.60125 217.6275,1.60125 C218.0125,1.60125 218.436875,1.675625 218.900625,1.824375 C219.364375,1.973125 219.801875,2.23125 220.213125,2.59875 C220.624375,2.96625 220.965625,3.460625 221.236875,4.081875 C221.508125,4.703125 221.64375,5.4775 221.64375,6.405 C221.64375,7.49 221.48625,8.343125 221.17125,8.964375 C220.85625,9.585625 220.4975,10.045 220.095,10.3425 C219.9725,10.43 219.85875,10.5 219.75375,10.5525 C219.64875,10.605 219.52625,10.64875 219.38625,10.68375 C219.24625,10.71875 219.084375,10.745 218.900625,10.7625 C218.716875,10.78 218.49375,10.78875 218.23125,10.78875 Z" id="BOOKER"></path>
        </g>
    </g>
</svg>